<?xml version="1.0" encoding="UTF-8" standalone="no"?>
<!-- Created with Inkscape (http://www.inkscape.org/) -->

<svg
   version="1.1"
   id="svg2"
   width="717.73334"
   height="194.39999"
   viewBox="0 0 717.73334 194.39999"
   sodipodi:docname="Eviden-an-atos-business-orange-CMYK.eps"
   xmlns:inkscape="http://www.inkscape.org/namespaces/inkscape"
   xmlns:sodipodi="http://sodipodi.sourceforge.net/DTD/sodipodi-0.dtd"
   xmlns="http://www.w3.org/2000/svg"
   xmlns:svg="http://www.w3.org/2000/svg">
  <defs
     id="defs6" />
  <sodipodi:namedview
     id="namedview4"
     pagecolor="#ffffff"
     bordercolor="#000000"
     borderopacity="0.25"
     inkscape:showpageshadow="2"
     inkscape:pageopacity="0.0"
     inkscape:pagecheckerboard="0"
     inkscape:deskcolor="#d1d1d1" />
  <g
     id="g8"
     inkscape:groupmode="layer"
     inkscape:label="ink_ext_XXXXXX"
     transform="matrix(1.3333333,0,0,-1.3333333,0,194.4)">
    <g
       id="g10"
       transform="scale(0.1)">
      <path
         d="m 4702,1456 490,-683 c 12,-16 34,-10 34,6 v 613 h 89 V 562 h -81 l -602,851 c -26,38 -41,45 -69,45 h -38 c -20,0 -34,-14 -34,-34 V 533 c 0,-20 14,-34 34,-34 h 158 c 20,0 34,14 34,34 v 510 l -69,95 V 563 h -89 v 827 l 600,-849 c 26,-36 43,-45 77,-45 h 113 c 20,0 34,14 34,34 v 892 c 0,20 -14,34 -34,34 h -156 c -20,0 -34,-14 -34,-34 V 924 l -365,532 z m -2438,0 h -192 c -20,0 -34,-14 -34,-34 V 531 c 0,-20 14,-34 34,-34 h 158 c 20,0 34,14 34,34 v 788 h -69 V 561 h -89 v 830 h 158 v 65 z M 4235,936 h -604 c -71,0 -115,-47 -115,-111 V 608 c 0,-65 45,-111 115,-111 h 640 c 20,0 34,14 34,34 v 144 c 0,20 -14,34 -34,34 h -533 v 89 h -65 V 644 h 565 v -83 h -608 c -28,0 -47,18 -47,47 v 217 c 0,28 18,47 47,47 h 636 c 20,0 34,14 34,34 v 143 c 0,20 -14,34 -34,34 h -636 c -28,0 -47,18 -47,47 v 215 c 0,28 18,47 47,47 h 610 v -83 h -567 v -152 h 65 v 87 h 533 c 20,0 34,14 34,34 v 142 c 0,20 -14,36 -34,36 h -640 c -71,0 -115,-47 -115,-111 v -215 c 0,-65 45,-111 115,-111 h 604 v -83 z m -2512,456 h 99 l -330,-832 -342,865 c -10,24 -24,32 -51,32 H 933 c -20,0 -32,-14 -32,-32 0,-6 2,-14 4,-20 l 356,-907 h 83 l -356,895 h 97 l 344,-867 c 10,-24 20,-28 45,-28 h 36 c 24,0 34,4 45,28 l 348,878 c 2,6 4,14 4,20 0,18 -12,32 -32,32 h -164 c -26,0 -41,-8 -51,-32 l -211,-543 38,-93 z M 718,936 H 115 C 44,936 0,889 0,825 V 608 C 0,543 45,497 115,497 h 640 c 20,0 34,14 34,34 v 144 c 0,20 -14,34 -34,34 H 222 v 89 H 157 V 644 H 722 V 561 H 115 c -28,0 -47,18 -47,47 v 217 c 0,28 18,47 47,47 h 636 c 20,0 34,14 34,34 v 143 c 0,20 -14,34 -34,34 H 115 c -28,0 -47,18 -47,47 v 215 c 0,28 18,47 47,47 h 610 v -83 H 157 v -152 h 65 v 87 h 533 c 20,0 34,14 34,34 v 142 c 0,20 -14,36 -34,36 H 115 C 44,1456 0,1409 0,1345 v -215 c 0,-65 45,-111 115,-111 h 604 v -83 z m 1904,373 V 782 h 67 v 462 h 247 c 122,0 209,-109 209,-267 0,-158 -87,-267 -209,-267 h -356 c -28,0 -47,18 -47,47 v 588 c 0,28 18,47 47,47 h 356 c 213,0 367,-174 367,-415 0,-241 -154,-415 -367,-415 h -472 v -65 h 472 c 241,0 438,207 438,480 0,273 -196,480 -438,480 h -356 c -71,0 -115,-47 -115,-111 V 757 c 0,-65 45,-111 115,-111 h 356 c 154,0 280,142 280,332 0,190 -126,332 -280,332 h -314 v -1"
         style="fill:#f2593c;fill-opacity:1;fill-rule:nonzero;stroke:none"
         id="path12" />
      <path
         d="m 1113,2 v 47 l -2,9 v 80 c 0,17 -5,30 -15,40 -10,9 -25,14 -45,14 -13,0 -26,-2 -39,-6 -13,-4 -23,-10 -32,-17 l -17,30 c 11,9 25,16 41,21 16,5 33,7 50,7 30,0 54,-7 70,-22 16,-15 25,-37 25,-68 V 3 h -36 z m -73,-2 c -16,0 -31,3 -43,8 -12,6 -22,13 -29,23 -7,10 -10,21 -10,34 0,12 3,23 9,33 6,10 15,18 28,23 13,6 30,9 53,9 h 70 v -29 h -69 c -20,0 -34,-3 -41,-10 -7,-7 -10,-15 -10,-24 0,-11 4,-20 13,-26 9,-7 21,-10 36,-10 15,0 28,3 40,10 11,7 19,16 24,29 l 8,-28 C 1114,29 1104,18 1091,11 1077,3 1060,0 1040,0"
         style="fill:#231f20;fill-opacity:1;fill-rule:nonzero;stroke:none"
         id="path14" />
      <path
         d="m 1344,226 c 18,0 34,-3 48,-10 14,-7 25,-18 32,-32 8,-14 12,-32 12,-54 V 2 h -40 v 123 c 0,21 -5,38 -16,49 -11,11 -25,16 -44,16 -14,0 -27,-3 -37,-8 -10,-5 -19,-14 -24,-25 -6,-11 -9,-24 -9,-41 V 2 h -40 v 222 h 39 v -60 l -6,16 c 7,15 18,26 34,34 13,8 31,12 51,12"
         style="fill:#231f20;fill-opacity:1;fill-rule:nonzero;stroke:none"
         id="path16" />
      <path
         d="m 1761,2 v 47 l -2,9 v 80 c 0,17 -5,30 -15,40 -10,9 -25,14 -45,14 -13,0 -26,-2 -39,-6 -13,-4 -23,-10 -32,-17 l -17,30 c 11,9 25,16 41,21 16,5 33,7 50,7 30,0 54,-7 70,-22 16,-15 25,-37 25,-68 V 3 h -36 z m -73,-2 c -16,0 -31,3 -43,8 -12,6 -22,13 -29,23 -7,10 -10,21 -10,34 0,12 3,23 9,33 6,10 15,18 28,23 13,6 30,9 53,9 h 70 v -29 h -69 c -20,0 -34,-3 -41,-10 -7,-7 -10,-15 -10,-24 0,-11 4,-20 13,-26 9,-7 21,-10 36,-10 15,0 28,3 40,10 11,7 19,16 24,29 l 8,-28 C 1762,29 1752,18 1739,11 1726,3 1709,0 1688,0"
         style="fill:#231f20;fill-opacity:1;fill-rule:nonzero;stroke:none"
         id="path18" />
      <path
         d="m 1950,0 c -22,0 -40,6 -52,18 -12,12 -18,29 -18,52 v 204 h 40 V 72 c 0,-12 3,-21 9,-28 6,-6 15,-10 26,-10 13,0 23,3 31,10 l 13,-29 c -6,-5 -13,-9 -22,-12 -9,-2 -18,-3 -27,-3 z m -108,191 v 33 h 142 v -33 h -142"
         style="fill:#231f20;fill-opacity:1;fill-rule:nonzero;stroke:none"
         id="path20" />
      <path
         d="m 2135,35 c 14,0 27,3 38,10 11,7 20,16 27,27 6,12 10,26 10,41 0,16 -3,30 -10,41 -6,12 -15,21 -27,27 -12,6 -24,10 -38,10 -14,0 -27,-3 -38,-10 -11,-7 -20,-15 -27,-27 -7,-12 -10,-25 -10,-41 0,-16 3,-29 10,-41 7,-12 16,-21 27,-27 11,-6 24,-10 38,-10 z m 0,-35 c -22,0 -42,5 -59,15 -17,10 -31,23 -41,40 -10,17 -15,37 -15,58 0,22 5,42 15,59 10,17 24,30 41,40 17,10 37,14 59,14 22,0 42,-5 59,-14 17,-10 31,-23 41,-40 10,-17 15,-37 15,-59 0,-22 -5,-42 -15,-59 C 2225,37 2211,24 2194,14 2177,4 2157,0 2135,0"
         style="fill:#231f20;fill-opacity:1;fill-rule:nonzero;stroke:none"
         id="path22" />
      <path
         d="m 2369,0 c -18,0 -36,3 -53,8 -17,5 -30,11 -39,18 l 17,32 c 9,-6 21,-12 35,-16 14,-4 28,-7 43,-7 19,0 32,3 40,8 8,5 12,13 12,22 0,7 -3,12 -8,16 -5,4 -12,7 -20,9 -8,2 -17,4 -27,5 -10,1 -20,3 -30,6 -10,2 -19,6 -28,10 -8,4 -15,10 -20,18 -5,8 -8,18 -8,31 0,13 4,25 11,35 8,10 18,18 32,23 14,5 30,8 49,8 15,0 29,-2 44,-5 15,-3 27,-8 37,-15 l -17,-32 c -10,7 -21,11 -31,14 -11,3 -22,4 -33,4 -18,0 -31,-3 -39,-9 -9,-6 -13,-13 -13,-22 0,-8 3,-13 8,-17 5,-4 12,-7 20,-9 8,-2 17,-4 27,-6 10,-2 20,-3 30,-6 10,-2 19,-6 27,-10 8,-4 15,-10 20,-18 5,-8 8,-18 8,-30 0,-13 -4,-25 -12,-35 -8,-10 -19,-17 -33,-23 -12,-5 -29,-7 -49,-7"
         style="fill:#231f20;fill-opacity:1;fill-rule:nonzero;stroke:none"
         id="path24" />
      <path
         d="m 2743,35 c 14,0 27,3 38,10 11,7 20,16 27,27 7,12 10,26 10,41 0,16 -3,30 -10,41 -7,12 -15,21 -27,27 -12,6 -24,10 -38,10 -14,0 -27,-3 -38,-10 -11,-7 -20,-15 -27,-27 -7,-12 -10,-25 -10,-41 0,-16 3,-29 10,-41 7,-12 15,-21 27,-27 12,-6 24,-10 38,-10 z m 3,-35 c -19,0 -36,4 -51,13 -15,9 -27,21 -36,38 -9,17 -13,38 -13,63 0,25 5,46 14,63 9,17 21,29 36,38 15,8 32,13 50,13 22,0 41,-5 58,-14 17,-9 30,-23 40,-40 10,-17 15,-37 15,-59 0,-22 -5,-42 -15,-59 C 2834,39 2821,26 2804,16 2787,4 2768,0 2746,0 Z m -118,2 v 311 h 40 V 165 l -4,-52 3,-52 V 1 h -39 v 1"
         style="fill:#231f20;fill-opacity:1;fill-rule:nonzero;stroke:none"
         id="path26" />
      <path
         d="m 3007,0 c -19,0 -36,3 -50,10 -14,7 -26,18 -34,32 -8,14 -12,32 -12,54 v 128 h 40 V 101 c 0,-22 5,-38 16,-49 10,-11 25,-16 44,-16 14,0 26,3 36,9 10,6 18,14 24,25 6,11 8,24 8,40 v 115 h 40 V 3 h -36 v 60 l 6,-16 C 3082,32 3071,21 3056,13 3042,4 3025,0 3007,0"
         style="fill:#231f20;fill-opacity:1;fill-rule:nonzero;stroke:none"
         id="path28" />
      <path
         d="m 3261,0 c -18,0 -36,3 -53,8 -17,5 -30,11 -39,18 l 17,32 c 9,-6 21,-12 35,-16 14,-4 28,-7 43,-7 19,0 32,3 40,8 8,5 12,13 12,22 0,7 -3,12 -8,16 -5,4 -12,7 -20,9 -8,2 -17,4 -27,5 -10,1 -20,3 -30,6 -10,2 -19,6 -28,10 -8,4 -15,10 -20,18 -5,8 -8,18 -8,31 0,13 4,25 11,35 8,10 18,18 32,23 14,5 30,8 49,8 15,0 29,-2 44,-5 15,-3 27,-8 37,-15 l -17,-32 c -10,7 -21,11 -31,14 -11,3 -22,4 -33,4 -18,0 -31,-3 -39,-9 -9,-6 -13,-13 -13,-22 0,-8 3,-13 8,-17 5,-4 12,-7 20,-9 8,-2 17,-4 27,-6 10,-2 20,-3 30,-6 10,-2 19,-6 27,-10 8,-4 15,-10 20,-18 5,-8 8,-18 8,-30 0,-13 -4,-25 -12,-35 -8,-10 -19,-17 -33,-23 -12,-5 -29,-7 -49,-7"
         style="fill:#231f20;fill-opacity:1;fill-rule:nonzero;stroke:none"
         id="path30" />
      <path
         d="m 3407,2 v 222 h 40 V 2 Z m 20,265 c -8,0 -14,3 -19,8 -5,5 -8,11 -8,18 0,8 3,14 8,19 5,5 12,8 19,8 8,0 14,-2 19,-7 5,-5 8,-11 8,-18 0,-8 -3,-14 -8,-19 -4,-7 -11,-9 -19,-9"
         style="fill:#231f20;fill-opacity:1;fill-rule:nonzero;stroke:none"
         id="path32" />
      <path
         d="m 3643,226 c 18,0 34,-3 48,-10 14,-7 25,-18 32,-32 8,-14 12,-32 12,-54 V 2 h -40 v 123 c 0,21 -5,38 -16,49 -11,11 -25,16 -44,16 -14,0 -27,-3 -37,-8 -11,-6 -19,-14 -25,-25 -6,-11 -9,-24 -9,-41 V 2 h -40 v 222 h 39 v -60 l -6,16 c 7,15 18,26 34,34 16,8 31,12 52,12"
         style="fill:#231f20;fill-opacity:1;fill-rule:nonzero;stroke:none"
         id="path34" />
      <path
         d="m 3908,0 c -24,0 -45,5 -63,15 -18,10 -32,23 -42,40 -10,17 -15,37 -15,59 0,22 5,42 14,59 10,17 23,30 40,40 17,10 36,14 57,14 21,0 40,-5 57,-14 17,-9 29,-23 39,-40 9,-17 14,-37 14,-60 0,-2 0,-4 0,-6 0,-2 0,-4 -1,-6 h -189 v 29 h 168 l -16,-10 c 0,14 -3,27 -9,38 -6,11 -15,20 -25,26 -11,6 -23,9 -37,9 -14,0 -26,-3 -37,-9 -11,-6 -19,-15 -26,-26 -6,-11 -9,-24 -9,-39 v -7 c 0,-15 3,-28 10,-40 7,-12 16,-21 29,-27 12,-6 26,-10 42,-10 13,0 25,2 36,7 11,4 20,11 28,20 l 22,-26 C 3985,24 3972,15 3958,9 3943,3 3927,0 3908,0"
         style="fill:#231f20;fill-opacity:1;fill-rule:nonzero;stroke:none"
         id="path36" />
      <path
         d="m 4129,0 c -18,0 -36,3 -53,8 -17,5 -30,11 -39,18 l 17,32 c 9,-6 21,-12 35,-16 14,-4 28,-7 43,-7 19,0 32,3 40,8 8,5 12,13 12,22 0,7 -3,12 -8,16 -5,4 -12,7 -20,9 -8,2 -17,4 -27,5 -10,1 -20,3 -30,6 -10,2 -19,6 -28,10 -8,4 -15,10 -20,18 -5,8 -8,18 -8,31 0,13 4,25 11,35 8,10 18,18 32,23 14,5 30,8 49,8 15,0 29,-2 44,-5 15,-3 27,-8 37,-15 l -17,-32 c -10,7 -21,11 -31,14 -11,3 -22,4 -33,4 -18,0 -31,-3 -39,-9 -9,-6 -13,-13 -13,-22 0,-8 3,-13 8,-17 5,-4 12,-7 20,-9 8,-2 17,-4 27,-6 10,-2 20,-3 30,-6 10,-2 19,-6 27,-10 8,-4 15,-10 20,-18 5,-8 8,-18 8,-30 0,-13 -4,-25 -12,-35 -8,-10 -19,-17 -33,-23 -12,-5 -29,-7 -49,-7"
         style="fill:#231f20;fill-opacity:1;fill-rule:nonzero;stroke:none"
         id="path38" />
      <path
         d="m 4339,0 c -18,0 -36,3 -53,8 -17,5 -30,11 -39,18 l 17,32 c 9,-6 21,-12 35,-16 14,-4 28,-7 43,-7 19,0 32,3 40,8 8,5 12,13 12,22 0,7 -3,12 -8,16 -5,4 -12,7 -20,9 -8,2 -17,4 -27,5 -10,1 -20,3 -30,6 -10,2 -19,6 -28,10 -8,4 -15,10 -20,18 -5,8 -8,18 -8,31 0,13 4,25 11,35 8,10 18,18 32,23 14,5 30,8 49,8 15,0 29,-2 44,-5 15,-3 27,-8 37,-15 l -17,-32 c -10,7 -21,11 -31,14 -11,3 -22,4 -33,4 -18,0 -31,-3 -39,-9 -9,-6 -13,-13 -13,-22 0,-8 3,-13 8,-17 5,-4 12,-7 20,-9 8,-2 17,-4 27,-6 10,-2 20,-3 30,-6 10,-2 19,-6 27,-10 8,-4 15,-10 20,-18 5,-8 8,-18 8,-30 0,-13 -4,-25 -12,-35 -8,-10 -19,-17 -33,-23 -12,-5 -29,-7 -49,-7"
         style="fill:#231f20;fill-opacity:1;fill-rule:nonzero;stroke:none"
         id="path40" />
    </g>
  </g>
</svg>
